<svg width="101" height="100" viewBox="0 0 101 100" fill="none" xmlns="http://www.w3.org/2000/svg">
<path d="M13.5 27C12.9696 27 12.4609 27.2107 12.0858 27.5858C11.7107 27.9609 11.5 28.4696 11.5 29C11.5 29.5304 11.7107 30.0391 12.0858 30.4142C12.4609 30.7893 12.9696 31 13.5 31C14.0304 31 14.5391 30.7893 14.9142 30.4142C15.2893 30.0391 15.5 29.5304 15.5 29C15.5 28.4696 15.2893 27.9609 14.9142 27.5858C14.5391 27.2107 14.0304 27 13.5 27Z" fill="#FBC658"/>
<path d="M77.5 12C77.2348 12 76.9804 12.1054 76.7929 12.2929C76.6054 12.4804 76.5 12.7348 76.5 13C76.5 13.2652 76.6054 13.5196 76.7929 13.7071C76.9804 13.8946 77.2348 14 77.5 14C77.7652 14 78.0196 13.8946 78.2071 13.7071C78.3946 13.5196 78.5 13.2652 78.5 13C78.5 12.7348 78.3946 12.4804 78.2071 12.2929C78.0196 12.1054 77.7652 12 77.5 12Z" fill="#F1BC19"/>
<path d="M50.5 13C40.687 13 31.2759 16.8982 24.337 23.837C17.3982 30.7759 13.5 40.187 13.5 50C13.5 59.813 17.3982 69.2241 24.337 76.1629C31.2759 83.1018 40.687 87 50.5 87C60.313 87 69.7241 83.1018 76.6629 76.1629C83.6018 69.2241 87.5 59.813 87.5 50C87.5 40.187 83.6018 30.7759 76.6629 23.837C69.7241 16.8982 60.313 13 50.5 13Z" fill="#6BD098"/>
<path d="M83.5 11C82.4391 11 81.4217 11.4214 80.6716 12.1716C79.9214 12.9217 79.5 13.9391 79.5 15C79.5 16.0609 79.9214 17.0783 80.6716 17.8284C81.4217 18.5786 82.4391 19 83.5 19C84.5609 19 85.5783 18.5786 86.3284 17.8284C87.0786 17.0783 87.5 16.0609 87.5 15C87.5 13.9391 87.0786 12.9217 86.3284 12.1716C85.5783 11.4214 84.5609 11 83.5 11Z" fill="#FBC658"/>
<path d="M87.5 22C86.9696 22 86.4609 22.2107 86.0858 22.5858C85.7107 22.9609 85.5 23.4696 85.5 24C85.5 24.5304 85.7107 25.0391 86.0858 25.4142C86.4609 25.7893 86.9696 26 87.5 26C88.0304 26 88.5391 25.7893 88.9142 25.4142C89.2893 25.0391 89.5 24.5304 89.5 24C89.5 23.4696 89.2893 22.9609 88.9142 22.5858C88.5391 22.2107 88.0304 22 87.5 22Z" fill="#EF8157"/>
<path d="M81.5 74C80.9696 74 80.4609 74.2107 80.0858 74.5858C79.7107 74.9609 79.5 75.4696 79.5 76C79.5 76.5304 79.7107 77.0391 80.0858 77.4142C80.4609 77.7893 80.9696 78 81.5 78C82.0304 78 82.5391 77.7893 82.9142 77.4142C83.2893 77.0391 83.5 76.5304 83.5 76C83.5 75.4696 83.2893 74.9609 82.9142 74.5858C82.5391 74.2107 82.0304 74 81.5 74ZM15.5 59C14.4391 59 13.4217 59.4214 12.6716 60.1716C11.9214 60.9217 11.5 61.9391 11.5 63C11.5 64.0609 11.9214 65.0783 12.6716 65.8284C13.4217 66.5786 14.4391 67 15.5 67C16.5609 67 17.5783 66.5786 18.3284 65.8284C19.0786 65.0783 19.5 64.0609 19.5 63C19.5 61.9391 19.0786 60.9217 18.3284 60.1716C17.5783 59.4214 16.5609 59 15.5 59Z" fill="#EF8157"/>
<path d="M25.5 85C24.9696 85 24.4609 85.2107 24.0858 85.5858C23.7107 85.9609 23.5 86.4696 23.5 87C23.5 87.5304 23.7107 88.0391 24.0858 88.4142C24.4609 88.7893 24.9696 89 25.5 89C26.0304 89 26.5391 88.7893 26.9142 88.4142C27.2893 88.0391 27.5 87.5304 27.5 87C27.5 86.4696 27.2893 85.9609 26.9142 85.5858C26.5391 85.2107 26.0304 85 25.5 85Z" fill="#EF8157"/>
<path d="M19 51C18.337 51 17.7011 51.2634 17.2322 51.7322C16.7634 52.2011 16.5 52.837 16.5 53.5C16.5 54.163 16.7634 54.7989 17.2322 55.2678C17.7011 55.7366 18.337 56 19 56C19.663 56 20.2989 55.7366 20.7678 55.2678C21.2366 54.7989 21.5 54.163 21.5 53.5C21.5 52.837 21.2366 52.2011 20.7678 51.7322C20.2989 51.2634 19.663 51 19 51Z" fill="#FBC658"/>
<path d="M21.5 66C21.2348 66 20.9804 66.1054 20.7929 66.2929C20.6054 66.4804 20.5 66.7348 20.5 67C20.5 67.2652 20.6054 67.5196 20.7929 67.7071C20.9804 67.8946 21.2348 68 21.5 68C21.7652 68 22.0196 67.8946 22.2071 67.7071C22.3946 67.5196 22.5 67.2652 22.5 67C22.5 66.7348 22.3946 66.4804 22.2071 66.2929C22.0196 66.1054 21.7652 66 21.5 66Z" fill="#F1BC19"/>
<path d="M80.5 33C80.2348 33 79.9804 33.1054 79.7929 33.2929C79.6054 33.4804 79.5 33.7348 79.5 34C79.5 34.2652 79.6054 34.5196 79.7929 34.7071C79.9804 34.8946 80.2348 35 80.5 35C80.7652 35 81.0196 34.8946 81.2071 34.7071C81.3946 34.5196 81.5 34.2652 81.5 34C81.5 33.7348 81.3946 33.4804 81.2071 33.2929C81.0196 33.1054 80.7652 33 80.5 33Z" fill="#EF8157"/>
<path d="M66 39L63.7824 67.5173C63.6329 69.4185 62.3291 71 60.5682 71H39.6641C37.895 71 36.6078 69.4269 36.4499 67.5173L34 39H66Z" fill="#EF8157"/>
<path d="M65.9919 39L63.7913 67.5173C63.6424 69.4185 62.3436 71 60.5896 71H50V39H66H65.9919Z" fill="#B56547"/>
<path d="M36.3585 33.8336H45.5627C45.5627 33.7504 45.5545 33.6754 45.5545 33.5923C45.5545 31.0714 47.559 29 50.0052 29C52.4516 29 54.4559 31.0632 54.4559 33.5923C54.4559 33.6754 54.4559 33.7504 54.4478 33.8336H63.6519C65.4846 33.8336 67.1454 35.3976 66.9899 37.2779L66.8508 39H33.1677L33.0121 37.2779C32.8403 35.3894 34.5174 33.8336 36.3501 33.8336H36.3585ZM47.5179 33.8336H52.5003C52.5084 33.7587 52.5084 33.6754 52.5084 33.5923C52.5084 32.1697 51.3794 31.0132 50.0048 31.0132C48.6303 31.0132 47.5012 32.1779 47.5012 33.5923C47.5012 33.6754 47.5012 33.7504 47.5093 33.8336H47.5179Z" fill="#F7F7F8"/>
<path d="M50 29H50.0407C52.482 29 54.4821 31.0632 54.4821 33.5923C54.4821 33.6754 54.4821 33.7504 54.474 33.8336H63.6589C65.4877 33.8336 67.1451 35.3976 66.9899 37.2779L66.8511 39H50V33.8336H52.531C52.5391 33.7587 52.5391 33.6754 52.5391 33.5923C52.5391 32.1697 51.4124 31.0132 50.0407 31.0132H50V29.0083V29Z" fill="#E6E6E6"/>
<path d="M40.9049 44.0001C41.956 44.0001 42.8182 44.8704 42.8182 45.9313V67H39V45.9312C39 44.8702 39.8622 44 40.9132 44L40.9049 44.0001ZM60.0868 44.0001C61.1378 44.0001 62 44.8704 62 45.9313V67H58.1818V45.9312C58.1818 44.8702 59.044 44 60.0951 44L60.0868 44.0001ZM53.6901 44.0001C54.7412 44.0001 55.6033 44.8704 55.6033 45.9313V67H51.7852V45.9312C51.7852 44.8702 52.6473 44 53.6984 44L53.6901 44.0001ZM47.2934 44.0001C48.3445 44.0001 49.2067 44.8704 49.2067 45.9313V67H45.3885V45.9312C45.3885 44.8702 46.2507 44 47.3017 44L47.2934 44.0001Z" fill="#F7F7F8"/>
</svg>
